<svg width="48" height="48" viewBox="0 0 48 48" fill="none" xmlns="http://www.w3.org/2000/svg">
<path d="M42.0004 41.9999L33.3144 33.3139M33.3144 33.3139C34.8002 31.8281 35.9788 30.0643 36.7829 28.123C37.587 26.1818 38.0008 24.1011 38.0008 21.9999C38.0008 19.8987 37.587 17.8181 36.7829 15.8768C35.9788 13.9356 34.8002 12.1717 33.3144 10.6859C31.8286 9.20015 30.0648 8.02157 28.1235 7.21747C26.1822 6.41337 24.1016 5.99951 22.0004 5.99951C19.8992 5.99951 17.8186 6.41337 15.8773 7.21747C13.9361 8.02157 12.1722 9.20015 10.6864 10.6859C7.68575 13.6866 6 17.7564 6 21.9999C6 26.2435 7.68575 30.3133 10.6864 33.3139C13.6871 36.3146 17.7568 38.0003 22.0004 38.0003C26.244 38.0003 30.3138 36.3146 33.3144 33.3139Z" stroke="white" stroke-width="2" stroke-linecap="round" stroke-linejoin="round"/>
</svg>
