<svg width="48" height="48" viewBox="0 0 48 48" fill="none" xmlns="http://www.w3.org/2000/svg">
<path d="M8 24V28.77C8 29.0767 8.128 29.3587 8.384 29.616C8.64 29.8733 8.922 30.0013 9.23 30H38.77C39.0767 30 39.3587 29.872 39.616 29.616C39.8733 29.36 40.0013 29.0773 40 28.768V24H8ZM9.23 6H38.77C39.6633 6 40.4253 6.31467 41.056 6.944C41.6853 7.57333 42 8.336 42 9.232V28.77C42 29.6633 41.6853 30.4253 41.056 31.056C40.4267 31.6853 39.6647 32 38.77 32H29.846V40.54L24 37.614L18.154 40.536V32H9.232C8.336 32 7.57333 31.6853 6.944 31.056C6.31467 30.4267 6 29.6647 6 28.77V9.23C6 8.33667 6.31467 7.57467 6.944 6.944C7.57333 6.31467 8.336 6 9.232 6M8 20.846H40V9.232C40 8.924 39.872 8.64133 39.616 8.384C39.36 8.12667 39.078 7.99867 38.77 8H9.23C8.92333 8 8.64133 8.128 8.384 8.384C8.12667 8.64 7.99867 8.922 8 9.23V20.846ZM8 28.77V8H9.232C8.924 8 8.64133 8.128 8.384 8.384C8.12667 8.64 7.99867 8.922 8 9.23V28.77ZM8 28.77C8 29.0767 8.128 29.3587 8.384 29.616C8.64 29.8733 8.922 30.0013 9.23 30H8V28.77Z" fill="white"/>
</svg>
