<svg width="48" height="48" viewBox="0 0 48 48" fill="none" xmlns="http://www.w3.org/2000/svg">
<path d="M38 34H42C43.2 34 44 33.2 44 32V26C44 24.2 42.6 22.6 41 22.2C37.4 21.2 32 20 32 20C32 20 29.4 17.2 27.6 15.4C26.6 14.6 25.4 14 24 14H10C8.8 14 7.8 14.8 7.2 15.8L4.4 21.6C4.13516 22.3725 4 23.1834 4 24V32C4 33.2 4.8 34 6 34H10" stroke="white" stroke-width="2" stroke-linecap="round" stroke-linejoin="round"/>
<path d="M14 38C16.2091 38 18 36.2091 18 34C18 31.7909 16.2091 30 14 30C11.7909 30 10 31.7909 10 34C10 36.2091 11.7909 38 14 38Z" stroke="white" stroke-width="2" stroke-linecap="round" stroke-linejoin="round"/>
<path d="M18 34H30" stroke="white" stroke-width="2" stroke-linecap="round" stroke-linejoin="round"/>
<path d="M34 38C36.2091 38 38 36.2091 38 34C38 31.7909 36.2091 30 34 30C31.7909 30 30 31.7909 30 34C30 36.2091 31.7909 38 34 38Z" stroke="white" stroke-width="2" stroke-linecap="round" stroke-linejoin="round"/>
</svg>
