<svg width="48" height="48" viewBox="0 0 48 48" fill="none" xmlns="http://www.w3.org/2000/svg">
<path d="M4.00008 24.0001C4.00008 24.6901 4.56008 25.2501 5.25008 25.2501H37.6961L24.8741 37.8591C24.7517 37.9728 24.6533 38.11 24.5848 38.2624C24.5163 38.4148 24.479 38.5795 24.4753 38.7465C24.4715 38.9136 24.5012 39.0798 24.5628 39.2351C24.6243 39.3905 24.7164 39.532 24.8336 39.6511C24.9507 39.7703 25.0906 39.8648 25.2449 39.9289C25.3992 39.9931 25.5648 40.0257 25.732 40.0248C25.8991 40.0238 26.0643 39.9894 26.2179 39.9235C26.3715 39.8576 26.5103 39.7615 26.6261 39.6411L41.6141 24.9031L41.6411 24.8761C41.7705 24.7445 41.8693 24.5858 41.9301 24.4115C41.991 24.2372 42.0125 24.0516 41.9931 23.8681C41.9613 23.5675 41.8217 23.2886 41.6001 23.0831L26.6261 8.35906C26.5103 8.23858 26.3715 8.14255 26.2179 8.07665C26.0643 8.01074 25.8991 7.9763 25.732 7.97536C25.5648 7.97442 25.3992 8.007 25.2449 8.07118C25.0906 8.13536 24.9507 8.22982 24.8336 8.34899C24.7164 8.46816 24.6243 8.60962 24.5628 8.76499C24.5012 8.92037 24.4715 9.0865 24.4753 9.25358C24.479 9.42066 24.5163 9.58528 24.5848 9.73772C24.6533 9.89015 24.7517 10.0273 24.8741 10.1411L37.6961 22.7501H5.25008C4.56008 22.7501 4.00008 23.3101 4.00008 24.0001Z" fill="white"/>
</svg>
