<svg width="24" height="27" viewBox="0 0 24 27" fill="none" xmlns="http://www.w3.org/2000/svg">
<g clip-path="url(#clip0_345_1027)">
<path d="M6.667 2.22209H8.40763C8.49355 2.22209 9.09796 2.3843 9.24313 2.42355C11.006 2.89834 12.7318 4.259 13.4866 5.92112C13.5555 5.97148 14.4754 5.57373 14.6665 5.51892C14.9257 5.44411 15.585 5.25968 15.8146 5.25968H17.333V3.03759L24 7.59212L17.333 12V9.85198H16.1109C15.879 9.85198 15.1043 10.3245 14.9228 10.5156C14.725 10.7238 14.2962 11.4748 14.2962 11.7408V16.296C15.2916 16.0398 16.2975 15.8583 17.333 15.9257V13.7777L24 18.1855L17.333 22.666V20.518H16.259C15.4746 20.518 14.2962 21.6987 14.2962 22.4808V26.0732H9.70385V19.3699C9.70385 18.71 8.54984 17.4811 7.88914 17.4811H6.667V19.6292L0 15.2205L6.667 10.7401V12.8881C7.70027 12.8348 8.71872 12.9436 9.70385 13.2584V8.70317C9.70385 8.6565 9.53497 8.18468 9.49571 8.09654C9.00685 6.99216 7.78396 6.65959 6.667 6.74032V8.96241L0.00222209 4.4812L6.667 0V2.22209ZM5.11154 3.70348L5.07524 2.88945L2.74279 4.4812L5.07524 6.07296L5.11154 5.25893H7.96321C8.15283 5.25893 8.91649 5.54855 9.12684 5.65076C10.0186 6.08407 10.7845 6.95957 11.0378 7.92544C11.1512 7.95284 11.1563 7.9084 11.2171 7.84692C11.3452 7.71804 12.217 6.79217 12.2104 6.71736C11.5504 5.32708 10.2342 4.25677 8.74094 3.88865C8.57281 3.84717 8.00765 3.70348 7.88914 3.70348H5.11154ZM12.7407 15.3324V11.8141C12.7407 10.2386 14.5998 8.29578 16.1849 8.29578H18.8885C18.9092 8.52096 18.8596 8.78242 18.8885 9.00093C18.9018 9.10388 18.8477 9.12907 18.9988 9.10981L21.2602 7.59138L18.8899 5.92556V6.74032C16.162 6.58108 13.4607 6.83439 11.9696 9.41201C11.2682 10.6245 11.0675 12.514 11.2563 13.891C11.3023 14.225 11.6948 14.3369 11.9274 14.5532C12.2015 14.808 12.437 15.1109 12.7414 15.3316L12.7407 15.3324ZM5.11154 14.4436L5.07524 13.5555L2.74057 15.2205L5.00191 16.739C5.15227 16.7582 5.0982 16.733 5.11228 16.6301C5.14116 16.4123 5.09154 16.1501 5.11228 15.9249H7.81581C9.38238 15.9249 11.26 17.8863 11.26 19.4432V24.517H12.7414V18.9988C12.7414 18.1996 11.8852 16.6975 11.3363 16.1079C10.7423 15.4709 9.12684 14.4436 8.26023 14.4436H5.11228H5.11154ZM18.8885 17.4804H15.8886C15.7079 17.4804 14.9776 17.6922 14.7761 17.7752C14.6065 17.8456 14.428 17.8967 14.2962 18.0359V19.7025C14.6317 19.5877 14.9257 19.3403 15.2605 19.2225C15.4798 19.1455 16.2094 18.9618 16.4071 18.9618H18.8885L18.9248 19.8499L21.2594 18.1848L18.9981 16.6664C18.8477 16.6471 18.9018 16.6723 18.8877 16.7753C18.8707 16.9064 18.9129 17.4552 18.8877 17.4804H18.8885Z" fill="#0C5197"/>
</g>
<defs>
<clipPath id="clip0_345_1027">
<rect width="24" height="26.0725" fill="white"/>
</clipPath>
</defs>
</svg>
