<svg width="24" height="31" viewBox="0 0 24 31" fill="none" xmlns="http://www.w3.org/2000/svg">
<g clip-path="url(#clip0_345_1142)">
<path d="M18.681 0V17.6956C18.9218 17.8841 19.2929 17.867 19.6048 17.9715C23.3796 19.2372 25.1637 23.4464 23.1816 26.995C21.0642 30.7869 15.7795 31.2453 12.9816 27.9367C12.3124 27.1458 11.961 26.2417 11.6114 25.2794H0V0H18.681ZM16.8815 1.79955H1.79955V23.4798H11.5685C11.6988 20.6914 13.9577 18.1712 16.7375 17.8087L16.8815 17.6956V1.79955ZM17.292 19.4771C14.5309 19.7573 12.6988 22.5424 13.4778 25.2117C14.5027 28.7217 19.256 29.5298 21.3718 26.5571C23.6178 23.401 21.1216 19.0889 17.2911 19.4771H17.292Z" fill="#0C5197"/>
<path d="M13.882 9.42627H4.71289V11.2258H13.882V9.42627Z" fill="#0C5197"/>
<path d="M13.882 13.6255H4.71289V15.425H13.882V13.6255Z" fill="#0C5197"/>
<path d="M13.882 5.22754V7.02709H4.84143L4.71289 6.89855V5.22754H13.882Z" fill="#0C5197"/>
<path d="M18.6809 20.5664V23.3086H19.7949V25.0224H16.8813V20.5664H18.6809Z" fill="#0C5197"/>
</g>
<defs>
<clipPath id="clip0_345_1142">
<rect width="24" height="30.1545" fill="white"/>
</clipPath>
</defs>
</svg>
