<svg width="24" height="28" viewBox="0 0 24 28" fill="none" xmlns="http://www.w3.org/2000/svg">
<g clip-path="url(#clip0_345_925)">
<path d="M5.06971 0.856115L8.64996 0.859231C8.57829 -0.289784 10.2227 -0.280436 10.2111 0.856115L13.7905 0.859231C13.7337 -0.267193 15.4342 -0.298353 15.3493 0.859231L18.8875 0.863905C19.1002 -0.291342 20.3652 -0.284331 20.6192 0.863126C21.4496 0.946478 22.5316 0.736929 23.3293 0.863905C23.718 0.925445 24.0164 1.35934 23.9992 1.75196V26.5302C24.0031 27.0537 23.6316 27.4291 23.1034 27.426H0.895861C0.372378 27.4299 -0.00309672 27.0583 1.92505e-05 26.5302L0.0218311 1.54007C0.0607807 1.27132 0.337323 0.936351 0.603739 0.87559C1.02985 0.778995 3.31619 0.943362 3.42291 0.851441C3.53042 -0.284331 5.00349 -0.273425 5.06971 0.856115ZM3.43071 2.49512H1.63902V5.14369H22.3602V2.49512H20.5686C20.4034 3.63634 19.1072 3.57636 18.8851 2.49044L15.3501 2.4959C15.3984 3.61219 13.8092 3.57324 13.789 2.49901L10.2531 2.49122C10.1355 3.56312 8.6336 3.62933 8.64996 2.4959L5.11489 2.49044C4.89288 3.57636 3.59663 3.63634 3.43148 2.49512H3.43071ZM22.3602 6.77958H1.63902V25.787H22.3602V6.77958Z" fill="#0C5197"/>
<path d="M11.2831 8.67247C16.8941 8.19962 21.0789 13.415 19.2802 18.7729C17.5508 23.9244 11.0478 25.6732 6.9355 22.0883C1.8993 17.6971 4.52373 9.24269 11.2831 8.67325V8.67247ZM16.3348 20.6183C19.4017 17.5499 18.2441 12.1631 14.2012 10.6153C9.00762 8.62651 4.2246 13.9128 6.53276 18.9848C8.2146 22.6788 13.497 23.4578 16.334 20.6191L16.3348 20.6183Z" fill="#0C5197"/>
<path d="M12.7872 19.953C13.01 20.8255 11.8283 21.3233 11.3391 20.6448C11.1747 20.4165 11.2752 20.0948 11.1435 19.9834C11.0329 19.8892 10.5375 19.7645 10.3373 19.6212C9.52013 19.0346 9.97194 17.9448 10.8639 18.0788C11.1264 18.1185 11.3266 18.3927 11.5876 18.4473C12.3362 18.6038 12.8994 18.3039 12.9383 17.5062C11.9825 16.8877 10.5718 17.0716 9.83094 16.0752C9.16724 15.1833 9.51857 13.7897 10.3256 13.0917C10.5188 12.925 11.1817 12.6539 11.2074 12.611C11.2962 12.4622 11.1069 12.1156 11.4598 11.811C11.8797 11.4488 12.5808 11.6046 12.7576 12.1366C12.8036 12.2745 12.7272 12.4763 12.855 12.5846C13.0396 12.7427 13.5966 12.8245 13.87 13.1275C14.4597 13.7834 13.8763 14.7065 12.9921 14.4728C12.8122 14.4253 12.6291 14.1682 12.4117 14.1192C11.713 13.961 11.0563 14.2898 11.0727 15.0625C11.7878 15.586 12.8059 15.5346 13.5826 15.9856C15.2683 16.9641 14.4839 19.5191 12.7864 19.953H12.7872Z" fill="#0C5197"/>
</g>
<defs>
<clipPath id="clip0_345_925">
<rect width="24" height="27.426" fill="white"/>
</clipPath>
</defs>
</svg>
