<svg width="24" height="24" viewBox="0 0 24 24" fill="none" xmlns="http://www.w3.org/2000/svg">
<g clip-path="url(#clip0_345_1082)">
<path d="M0.0195755 12.6845C-0.332514 6.64241 4.04579 1.13633 10.0177 0.17472C18.5673 -1.20163 25.7262 6.51574 23.6307 14.9455C22.4369 19.7481 18.1757 23.461 13.2308 23.9214C13.2553 23.6783 13.0088 22.6213 13.1586 22.5205C13.2219 22.4783 14.4117 22.3148 14.6616 22.2529C15.7131 21.9914 16.7367 21.5249 17.652 20.9528C18.1035 20.6702 18.5053 20.3256 18.9514 20.0382C18.9786 19.9387 18.9248 19.9251 18.8853 19.8679C18.5012 19.3102 17.6125 18.7361 17.1841 18.1626L18.0729 17.186L18.205 17.2112C18.7539 17.6382 19.3273 18.5093 19.8701 18.8832C19.9273 18.9227 19.9409 18.9765 20.0403 18.9492C20.3271 18.5025 20.6744 18.1027 20.955 17.6498C21.8846 16.1522 22.4655 14.4545 22.5608 12.6838H20.0751L19.9729 12.5816V11.3558L20.0751 11.2536H22.5608C22.4396 9.50272 21.8818 7.83148 20.955 6.3557C20.6717 5.90486 20.3284 5.5017 20.0403 5.05631C19.9409 5.02907 19.9273 5.08287 19.8701 5.12237C19.3123 5.50646 18.7382 6.3952 18.1648 6.82357L17.1882 5.93483L17.2134 5.80271C17.6404 5.2538 18.5114 4.68038 18.8853 4.1376C18.9248 4.0804 18.9786 4.06678 18.9514 3.96735C18.506 3.67927 18.1035 3.33604 17.652 3.05273C16.1612 2.11564 14.4553 1.54699 12.686 1.44687V9.61917C14.9136 10.1933 15.1506 13.3832 13.0258 14.2835C9.78071 15.6585 7.93513 10.6496 11.3239 9.61917V1.44756C9.55461 1.54767 7.84932 2.117 6.35787 3.05341C5.90704 3.33672 5.50387 3.67996 5.05848 3.96803L6.8237 5.89805L5.85051 6.82152C5.70001 6.79496 4.44351 5.33144 4.13978 5.12237C4.08257 5.08287 4.06895 5.02907 3.96952 5.05631C3.68145 5.5017 3.33821 5.90418 3.0549 6.3557C2.12667 7.83353 1.56618 9.50136 1.44905 11.2536H3.93479L4.03694 11.3558V12.5816L3.93479 12.6838H0.0195755V12.6845ZM11.7836 10.9301C10.4713 11.1426 10.6953 13.3246 12.2276 13.0767C13.54 12.8643 13.3159 10.6823 11.7836 10.9301Z" fill="#0C5197"/>
<path d="M8.58545 15.7681C9.83036 15.6264 11.0126 16.3504 11.396 17.5503C11.6262 18.2702 11.5969 20.6728 11.5309 21.5064C11.2775 24.7297 6.55123 24.9837 6.28495 21.2306C6.14534 19.2624 5.96623 16.0671 8.58477 15.7681H8.58545ZM8.58205 17.1948C8.23064 17.267 7.79138 17.7594 7.73145 18.1149C7.63202 18.7054 7.63814 20.9561 7.72123 21.5657C7.89353 22.8337 9.83717 22.9052 10.0837 21.6923C10.1756 21.2388 10.1709 18.5882 10.0946 18.1026C9.98496 17.3998 9.23174 17.0607 8.58205 17.1948Z" fill="#0C5197"/>
<path d="M4.10559 16.9735C3.32105 17.3787 2.65978 18.059 2.1994 18.8129C4.49037 18.503 6.11325 21.0746 4.67902 22.9617C3.24478 24.8488 0.19651 23.9342 0.0208052 21.5704C-0.154899 19.2065 1.41078 16.9333 3.32378 15.7612L4.10559 16.9735ZM2.52493 20.1893C2.08499 20.224 1.52519 20.6489 1.45436 21.0984C1.19421 22.7445 3.31492 23.0986 3.74533 21.7563C3.99799 20.9697 3.3551 20.1239 2.52493 20.1893Z" fill="#0C5197"/>
<path d="M14.321 15.749V18.5072L14.2189 18.6093H12.8909V15.749H14.321Z" fill="#0C5197"/>
</g>
<defs>
<clipPath id="clip0_345_1082">
<rect width="24" height="23.9707" fill="white" transform="translate(0 0.0146484)"/>
</clipPath>
</defs>
</svg>
