<svg width="24" height="24" viewBox="0 0 24 24" fill="none" xmlns="http://www.w3.org/2000/svg">
<g clip-path="url(#clip0_345_973)">
<path d="M24 1.57364V5.73273H22.5682V19.7782H24V24.0055H0V19.7782H1.43182V5.73273H0V1.57364L12.0341 0L24 1.57364ZM22.5682 2.80091L12.1057 1.43386L1.43182 2.80091V4.30091H11.3182V2.93727H12.6818V4.30091H22.5682V2.80091ZM4.22727 5.73273H2.79545V19.7782H4.22727V5.73273ZM18.3409 5.73273H5.65909V19.7782H18.3409V5.73273ZM21.2045 5.73273H19.7727V19.7782H21.2045V5.73273ZM22.5682 21.21H1.43182V22.5736H22.5682V21.21Z" fill="#0C5197"/>
<path d="M7.10053 8.74225L11.9755 7.11816L16.8792 8.72862C16.8662 10.3241 17.0919 12.0375 16.6855 13.5886C16.2035 15.4295 14.9674 17.0045 13.2853 17.8929C13.0358 18.0245 12.2101 18.4213 11.9721 18.4111C11.8078 18.4036 11.2658 18.1575 11.0803 18.0736C9.28031 17.2575 7.83008 15.572 7.31599 13.6561C6.89667 12.0927 7.1619 10.3507 7.10122 8.74225H7.10053ZM15.536 9.76498L11.9714 8.59975L8.46349 9.76498C8.34962 11.9645 8.46622 14.192 10.1578 15.7902C10.4449 16.0616 11.6749 16.9363 12.0287 16.9138C12.4712 16.8852 13.7544 15.9075 14.0803 15.5516C15.5626 13.9363 15.6349 11.852 15.536 9.76498Z" fill="#0C5197"/>
<path d="M12.6818 9.95996H11.3181V12.7554H12.6818V9.95996Z" fill="#0C5197"/>
<path d="M12.6818 14.1873H11.3181V15.5509H12.6818V14.1873Z" fill="#0C5197"/>
</g>
<defs>
<clipPath id="clip0_345_973">
<rect width="24" height="24.0055" fill="white"/>
</clipPath>
</defs>
</svg>
