<svg width="24" height="24" viewBox="0 0 24 24" fill="none" xmlns="http://www.w3.org/2000/svg">
<g clip-path="url(#clip0_345_876)">
<path d="M14.4562 0.0724931V3.07283C14.778 2.65074 14.9547 2.19387 15.3079 1.77655C16.5626 0.293427 18.6403 -0.312778 20.5101 0.257969C21.0344 0.418214 21.4961 0.743478 22.0252 0.89145L18.9615 4.00294L19.9454 5.04897L23.014 1.98316C25.3965 5.60267 22.9171 10.1011 18.5148 9.82292C18.2809 9.80792 17.9141 9.64085 17.7109 9.69881L16.0941 11.2904L17.0133 12.2096L17.5493 11.7384L18.5462 12.7223L16.1623 15.109L20.1848 19.1362C20.2359 19.1819 20.2673 19.1635 20.3198 19.1362C20.538 19.0237 20.9212 18.4223 21.1394 18.3098C21.192 18.2825 21.2233 18.2641 21.2745 18.3098L24 21.3142L21.3774 23.8741L18.373 21.2113C18.3096 21.1322 18.3655 21.0994 18.4071 21.0394C18.5639 20.8117 19.0944 20.4605 19.1995 20.2566C19.2267 20.2041 19.2451 20.1727 19.1995 20.1216L15.1722 16.0991L12.7855 18.483L11.7982 17.4956C11.8916 17.347 12.3328 17.0892 12.2441 16.9167L11.3195 16.0616L9.69656 17.7145C9.61405 17.9873 9.79475 18.3684 9.81793 18.6562C9.98159 20.6732 8.75963 22.7851 6.88578 23.5638C5.18173 24.2723 3.55745 23.9566 1.9775 23.1206L4.97307 20.0098L3.98909 18.9637L0.988749 21.9634C0.928742 22.0411 0.909649 22.0486 0.85237 21.9634C0.688033 21.7159 0.328674 20.8376 0.237982 20.5321C-0.266621 18.8389 0.16911 17.1874 1.21446 15.8038L0 13.6436L2.85237 12.0629C2.77941 11.3476 2.83191 10.6535 2.86669 9.93748L0.000681896 8.29002L3.14695 2.80962L3.39039 2.85395L6.10297 4.41276C6.7194 3.93202 7.41493 3.58494 8.11456 3.24399V0.0724931H14.4562ZM19.434 1.43697C16.6089 1.23444 14.7112 4.05613 15.925 6.62006L11.8023 10.7537L13.1954 12.2089L17.3236 8.08204C17.4668 8.01794 17.9611 8.26547 18.1787 8.31798C18.9049 8.49322 19.3788 8.48027 20.1002 8.27229C21.6877 7.81542 22.7535 6.12432 22.5026 4.50413L19.9461 7.02578L16.9847 4.05135L19.434 1.4356V1.43697ZM13.0924 1.50447H9.47835V4.30025C8.23321 4.5846 7.18104 5.29309 6.24003 6.12432L3.72315 4.71552L1.91067 7.74382L4.42482 9.25558C4.22775 10.4169 4.10979 11.5679 4.41118 12.7257L1.94204 14.1871L2.36209 14.8601C3.55063 14.2382 4.84964 13.9907 6.17047 14.3241L7.48244 13.0633C5.60723 9.33673 9.52336 5.46151 13.2533 7.28968L14.2884 6.27502L14.1739 4.65074L13.0924 4.30025V1.50447ZM12.1377 8.32411C9.84862 7.77587 7.88681 9.72745 8.52506 12.0057L12.1377 8.32411ZM4.50119 22.5751C6.82987 22.7162 8.62871 20.9542 8.37913 18.5948C8.34777 18.2996 8.01227 17.4752 8.07842 17.3279L12.2053 13.1997C11.8186 12.9412 11.1913 12.0118 10.8421 11.8318C10.7624 11.7909 10.7289 11.7991 10.6703 11.8659L6.61302 15.9313C6.54143 15.9668 5.84453 15.6886 5.66383 15.6511C3.27992 15.1581 1.19741 17.1103 1.43334 19.5072L3.98977 16.9856L6.95124 19.96L4.50187 22.5757L4.50119 22.5751ZM15.104 12.2798L12.418 14.9856C12.3641 15.1894 13.1176 15.7725 13.2724 15.9559L16.0198 13.2583L15.104 12.2805V12.2798ZM21.1183 20.3323C21.0385 20.3528 20.3805 21.0258 20.3935 21.1001L21.3679 21.9573L22.0273 21.246C21.8814 21.0674 21.3099 20.2825 21.1183 20.333V20.3323Z" fill="#0C5197"/>
</g>
<defs>
<clipPath id="clip0_345_876">
<rect width="24" height="23.9086" fill="white" transform="translate(0 0.0458984)"/>
</clipPath>
</defs>
</svg>
