<svg width="24" height="30" viewBox="0 0 24 30" fill="none" xmlns="http://www.w3.org/2000/svg">
<g clip-path="url(#clip0_345_832)">
<path d="M11.8133 10.5797C19.2663 10.429 24.0125 18.473 20.4278 24.9894C17.0729 31.0878 8.50014 31.6898 4.29975 26.133C-0.455799 19.8422 3.9549 10.739 11.8133 10.5806V10.5797ZM11.3867 12.3704C5.18615 12.8481 1.94795 20.0295 5.66384 25.0243C9.11832 29.6692 16.3253 29.12 18.9964 23.9813C21.8727 18.4475 17.6 11.891 11.3867 12.3695V12.3704Z" fill="#0C5197"/>
<path d="M4.08093 6.55463V12.3447H2.37796V6.55463L1.22845 7.57982L-0.000244141 6.35368L3.18687 3.15039L6.46339 6.42691L5.23044 7.57982L4.08093 6.55463Z" fill="#0C5197"/>
<path d="M21.6216 6.55463V12.3447H19.9186V6.55463L18.7691 7.57982L17.5361 6.42691L20.8127 3.15039L23.9998 6.35368L22.7711 7.57982L21.6216 6.55463Z" fill="#0C5197"/>
<path d="M12.8513 3.40424V8.85376H11.1483V3.40424L9.99882 4.42943L8.76587 3.27652L12.0424 0L15.2295 3.20329L14.0008 4.42943L12.8513 3.40424Z" fill="#0C5197"/>
<path d="M12.8513 14.1328V15.9635C13.8884 16.4156 14.6292 17.2995 14.6394 18.4754H12.8513C12.7644 17.073 10.68 17.5643 11.213 18.879C11.4523 19.4699 12.2084 19.3448 12.6827 19.4529C13.4763 19.6351 14.229 20.37 14.4861 21.1405C14.9834 22.6281 14.1966 23.9343 12.8513 24.5635V26.4794H11.1483V24.5635C10.1197 24.0637 9.40192 23.2429 9.36019 22.0516H11.1483C11.1713 23.1654 12.8598 23.1628 12.8598 22.0091C12.8598 21.006 11.9044 21.1984 11.2164 21.0052C10.5097 20.8059 9.7919 20.1256 9.54071 19.4452C8.98724 17.9407 9.75103 16.5774 11.1483 15.9644V14.1337H12.8513V14.1328Z" fill="#0C5197"/>
</g>
<defs>
<clipPath id="clip0_345_832">
<rect width="24" height="29.9562" fill="white"/>
</clipPath>
</defs>
</svg>
