<svg width="24" height="24" viewBox="0 0 24 24" fill="none" xmlns="http://www.w3.org/2000/svg">
<g clip-path="url(#clip0_345_1208)">
<path d="M19.6755 18.4545H21.5095V23.9566H12.6111V18.4545H13.8338V13.326C13.8338 12.7941 14.5035 11.5789 14.8547 11.1544C15.3044 10.6103 17.5344 8.34965 18.052 8.1024C18.5696 7.85514 19.1559 7.80148 19.6755 7.99371V5.10681C19.6755 2.66348 23.6968 2.16693 23.9536 5.04024C23.8523 7.10862 24.0914 9.30675 23.9576 11.3595C23.7817 14.0589 21.2772 15.4025 19.6748 17.2658V18.4545H19.6755ZM18.249 18.4545V16.7223C19.2965 15.5425 20.6659 14.4821 21.68 13.2927C22.0781 12.826 22.4741 12.1848 22.5312 11.5626C22.7193 9.51324 22.3824 7.18334 22.5312 5.10342C22.5237 4.27606 21.3132 4.23259 21.1305 5.00017C20.9362 6.69835 21.2901 8.67163 21.1013 10.3372C21.0639 10.666 20.8724 10.9621 20.7229 11.2495L18.0779 13.9054L17.0983 12.9279L19.5756 10.4418C20.0892 9.71838 19.2741 8.88764 18.4508 9.52072C17.8191 10.0064 15.7262 12.1624 15.4511 12.8383C15.373 13.0305 15.1916 13.5569 15.1916 13.7336V18.4545H18.2484H18.249ZM20.0831 19.881H13.9696V22.5301H20.0831V19.881Z" fill="#0C5197"/>
<path d="M4.32414 7.99381C4.90017 7.7778 5.49045 7.88105 6.02368 8.16227C6.6228 8.47881 9.17142 11.0906 9.54094 11.7094C9.72231 12.0131 10.1659 13.0102 10.1659 13.3261V18.4546H11.3886V23.9567H2.49011V18.4546H4.32414V17.2659C2.72242 15.4026 0.217272 14.059 0.0413406 11.3596C-0.0924758 9.30684 0.146628 7.10872 0.0454162 5.04034C0.303539 2.15819 4.32346 2.67037 4.32346 5.10691V7.99381H4.32414ZM5.75061 16.7224V18.4546H8.80733V13.7337C8.80733 13.557 8.62597 13.0299 8.54785 12.8384C8.27274 12.1625 6.18059 10.0065 5.54819 9.52081C4.72423 8.88773 3.90911 9.71848 4.42332 10.4419L6.90062 12.928L5.92111 13.9055L5.7805 13.841C5.08017 12.8581 3.03625 11.5552 2.89835 10.3373C2.70952 8.67172 3.06342 6.69844 2.86915 5.00026C2.68642 4.23269 1.47596 4.27616 1.46849 5.10351C1.61793 7.18344 1.28101 9.51334 1.46849 11.5627C1.52555 12.1849 1.92156 12.8261 2.31962 13.2928C3.33377 14.4822 4.70318 15.5419 5.75061 16.7224ZM10.03 19.8811H3.91658V22.5302H10.03V19.8811Z" fill="#0C5197"/>
<path d="M11.5108 0.0668108C15.3935 -0.309505 18.082 3.84356 16.1108 7.24806C14.325 10.332 9.78745 10.3809 7.93779 7.33501C6.11599 4.33535 8.01863 0.405767 11.5108 0.0668108ZM11.4401 1.49056C7.67899 1.96809 7.72111 7.88046 11.6955 8.197C16.5903 8.58623 16.5537 0.841859 11.4401 1.49056Z" fill="#0C5197"/>
<path d="M18.641 20.5061C19.5886 20.3695 19.7006 21.8313 18.8203 21.9183C17.94 22.0052 17.7389 20.6365 18.641 20.5061Z" fill="#0C5197"/>
<path d="M5.12288 20.5056C5.87551 20.3738 6.30141 21.4185 5.60924 21.8118C4.61682 22.3756 4.1325 20.6788 5.12288 20.5056Z" fill="#0C5197"/>
<path d="M12.6792 1.94824C12.5766 2.58947 12.7715 2.42713 13.0881 2.72805C13.442 3.06428 13.5588 3.44603 13.6301 3.91813H12.2037C12.1948 3.91813 12.1982 3.78499 12.1398 3.74695C11.9211 3.6043 11.6969 3.8108 11.8253 4.05942C11.8871 4.14568 12.2397 4.12327 12.3952 4.1681C13.4433 4.47377 13.9093 5.6034 13.3842 6.55913C13.1017 7.07402 12.5175 7.03123 12.6792 7.72204H11.3206C11.4354 7.08217 11.182 7.19561 10.8798 6.90624C10.5544 6.59513 10.4573 6.17602 10.3696 5.75216H11.7621C11.7988 5.75216 12.1799 6.26637 12.1745 5.61223C11.6765 5.42271 11.29 5.47705 10.8764 5.07561C10.2161 4.43573 10.2562 3.35162 10.9117 2.72805C11.2282 2.42713 11.4239 2.58947 11.3206 1.94824H12.6792Z" fill="#0C5197"/>
</g>
<defs>
<clipPath id="clip0_345_1208">
<rect width="24" height="23.9137" fill="white" transform="translate(0 0.0429688)"/>
</clipPath>
</defs>
</svg>
