<svg width="48" height="70" viewBox="0 0 48 70" fill="none" xmlns="http://www.w3.org/2000/svg">
<g clip-path="url(#clip0_281_6057)">
<path d="M11.0438 3.5735L38.4514 3.54419C41.8664 3.97472 44.424 6.60923 44.8014 10.0187L44.7922 61.6883C44.2774 65.1619 41.6429 67.7396 38.1143 68.0181C29.5201 68.6941 20.0484 67.5014 11.3626 68.0089C7.889 67.6443 5.23251 64.9988 4.84961 61.5143L4.85877 9.84465C5.33511 6.57075 7.74427 4.04251 11.0456 3.5735H11.0438ZM8.51923 10.7588V55.0947L8.79404 55.3695H40.8551L41.1299 55.0947V10.7588C41.1299 10.6654 40.8698 9.59915 40.8075 9.43243C40.4374 8.4248 39.4957 7.66266 38.4624 7.38053L10.7672 7.50877C9.40595 8.06388 8.67679 9.33167 8.51923 10.757V10.7588ZM41.1299 59.2169H8.51923C8.41297 61.3311 8.87831 63.5442 11.1867 64.1524L38.882 64.0242C40.8826 63.2217 41.2069 61.1607 41.1299 59.2187V59.2169Z" fill="white"/>
<path d="M24.2385 22.9951C39.8 22.385 41.6687 44.3936 27.7945 47.4348C9.89714 51.3591 6.60126 23.6858 24.2385 22.9951ZM30.9897 29.2351C26.6935 24.9389 19.0483 26.3826 16.8077 32.0547C14.0724 38.9762 20.3142 45.6357 27.4281 43.5911C33.5802 41.8232 35.4819 33.7292 30.9897 29.2351Z" fill="white"/>
<path d="M35.8173 14.6978H13.8325V18.3619H35.8173V14.6978Z" fill="white"/>
<path d="M28.2142 31.1882L30.867 33.8429L23.8172 40.8927L18.7827 35.8582L21.4355 33.2035L23.8172 35.5797L28.2142 31.1882Z" fill="white"/>
</g>
<defs>
<clipPath id="clip0_281_6057">
<rect width="48" height="68.9844" fill="white" transform="translate(0 0.308838)"/>
</clipPath>
</defs>
</svg>
