<svg width="41" height="40" viewBox="0 0 41 40" fill="none" xmlns="http://www.w3.org/2000/svg">
<path fill-rule="evenodd" clip-rule="evenodd" d="M33.4998 16.9667C32.9831 11.6667 29.8498 3.33337 20.1664 3.33337C10.4831 3.33337 7.34975 11.6667 6.83309 16.9667C5.02061 17.6546 3.82507 19.3948 3.83305 21.3334V23.6667C3.83305 26.244 5.92243 28.3334 8.49975 28.3334C11.0771 28.3334 13.1664 26.244 13.1664 23.6667V21.3334C13.158 19.4366 12.0064 17.7322 10.2498 17.0167C10.5831 13.95 12.2164 6.66671 20.1664 6.66671C28.1164 6.66671 29.7331 13.95 30.0664 17.0167C28.3133 17.7337 27.1675 19.4393 27.1664 21.3334V23.6667C27.1737 25.4583 28.2024 27.0889 29.8164 27.8667C29.1164 29.1834 27.3331 30.9667 22.9498 31.5C22.0735 30.1695 20.3783 29.645 18.9038 30.2482C17.4293 30.8514 16.5877 32.4136 16.8952 33.9767C17.2027 35.5399 18.5733 36.6667 20.1664 36.6667C21.4253 36.6597 22.5729 35.9441 23.1331 34.8167C30.2831 34 32.5664 30.3167 33.2831 28.15C35.222 27.522 36.5259 25.7046 36.4998 23.6667V21.3334C36.5078 19.3948 35.3122 17.6546 33.4998 16.9667ZM9.83309 23.6667C9.83309 24.4031 9.23613 25 8.49975 25C7.76337 25 7.16642 24.4031 7.16642 23.6667V21.3334C7.16642 20.857 7.42055 20.4168 7.83309 20.1787C8.24562 19.9405 8.75389 19.9405 9.16642 20.1787C9.57896 20.4168 9.83309 20.857 9.83309 21.3334V23.6667ZM30.4998 21.3334C30.4998 20.597 31.0967 20 31.8331 20C32.5695 20 33.1664 20.597 33.1664 21.3334V23.6667C33.1664 24.4031 32.5695 25 31.8331 25C31.0967 25 30.4998 24.4031 30.4998 23.6667V21.3334Z" fill="#1487FC"/>
</svg>
