<svg width="28" height="41" viewBox="0 0 28 41" fill="none" xmlns="http://www.w3.org/2000/svg">
<g clip-path="url(#clip0_281_5882)">
<path d="M6.44238 1.90443L22.4302 1.88733C24.4222 2.13847 25.9141 3.67527 26.1343 5.66412L26.129 35.8047C25.8286 37.831 24.2918 39.3347 22.2335 39.4971C17.2202 39.8914 11.6951 39.1957 6.62834 39.4918C4.60208 39.2791 3.05246 37.7359 2.8291 35.7032L2.83445 5.5626C3.11231 3.65283 4.51765 2.17802 6.44345 1.90443H6.44238ZM4.96971 6.09588V31.9585L5.13002 32.1188H23.8323L23.9926 31.9585V6.09588C23.9926 6.04138 23.8409 5.41939 23.8045 5.32214C23.5886 4.73435 23.0393 4.28977 22.4366 4.12519L6.28101 4.2C5.48696 4.52382 5.06162 5.26336 4.96971 6.09481V6.09588ZM23.9926 34.3631H4.96971C4.90773 35.5963 5.17918 36.8873 6.52574 37.2421L22.6813 37.1673C23.8483 36.6992 24.0375 35.4969 23.9926 34.3641V34.3631Z" fill="#1487FC"/>
<path d="M14.1389 13.2338C23.2165 12.8779 24.3066 25.7163 16.2133 27.4903C5.77313 29.7795 3.85053 13.6367 14.1389 13.2338ZM18.0771 16.8738C15.571 14.3677 11.1113 15.2099 9.80427 18.5186C8.2087 22.5561 11.8498 26.4408 15.9995 25.2482C19.5882 24.2169 20.6976 19.4953 18.0771 16.8738Z" fill="#1487FC"/>
<path d="M20.8938 8.39355H8.06934V10.531H20.8938V8.39355Z" fill="#1487FC"/>
<path d="M16.4582 18.0129L18.0057 19.5615L13.8933 23.6739L10.9565 20.7371L12.504 19.1885L13.8933 20.5746L16.4582 18.0129Z" fill="#1487FC"/>
</g>
<defs>
<clipPath id="clip0_281_5882">
<rect width="28" height="40.2409" fill="white"/>
</clipPath>
</defs>
</svg>
