<svg width="41" height="40" viewBox="0 0 41 40" fill="none" xmlns="http://www.w3.org/2000/svg">
<path d="M25 10.5001C24.6946 10.8116 24.5235 11.2305 24.5235 11.6668C24.5235 12.103 24.6946 12.5219 25 12.8334L27.6666 15.5001C27.9782 15.8055 28.397 15.9765 28.8333 15.9765C29.2696 15.9765 29.6884 15.8055 30 15.5001L35.1766 10.3251C35.71 9.78842 36.615 9.95842 36.815 10.6884C37.3185 12.5199 37.2901 14.4569 36.7329 16.2727C36.1758 18.0886 35.113 19.7083 33.6689 20.9422C32.2249 22.176 30.4593 22.9732 28.5787 23.2402C26.6982 23.5072 24.7804 23.2332 23.05 22.4501L9.86663 35.6334C9.20359 36.2962 8.3044 36.6685 7.36687 36.6684C6.42935 36.6682 5.53028 36.2956 4.86746 35.6326C4.20464 34.9695 3.83236 34.0704 3.83252 33.1328C3.83268 32.1953 4.20526 31.2962 4.8683 30.6334L18.0516 17.4501C17.2685 15.7196 16.9945 13.8019 17.2615 11.9213C17.5286 10.0408 18.3257 8.27517 19.5596 6.83111C20.7935 5.38706 22.4131 4.32427 24.229 3.76713C26.0448 3.20999 27.9818 3.18153 29.8133 3.68509C30.5433 3.88509 30.7133 4.78842 30.1783 5.32509L25 10.5001Z" stroke="#1487FC" stroke-width="3.33333" stroke-linecap="round" stroke-linejoin="round"/>
</svg>
