<svg width="40" height="27" viewBox="0 0 40 27" fill="none" xmlns="http://www.w3.org/2000/svg">
<g clip-path="url(#clip0_281_5779)">
<path d="M34.3354 25.7813C33.9098 26.3913 32.9467 26.8811 32.1905 26.9025H2.81505C1.40019 26.7777 0.217179 25.3652 0.147031 23.9836C0.478749 18.7582 -0.302394 12.9703 0.141086 7.81147C0.281383 6.1719 1.3134 5.04715 2.9387 4.7832L32.074 4.77844C33.647 4.94252 34.8502 6.10888 34.9858 7.69257C35.4364 12.9311 34.6362 18.8034 34.9858 24.1085C34.9596 24.7232 34.6802 25.2879 34.3366 25.7813H34.3354ZM29.1504 8.23711L5.97053 8.23117C6.05257 9.51167 4.8862 10.7268 3.59262 10.6091L3.6057 21.0612C4.95516 21.2134 5.97885 22.0361 6.02403 23.4581L6.26896 23.5699H29.1563C29.1849 22.0765 30.2882 21.2514 31.6603 21.0005L31.6543 10.6103C30.249 10.6804 29.2312 9.60798 29.1516 8.2383L29.1504 8.23711Z" fill="#1487FC"/>
<path d="M36.24 3.04972C37.0854 3.66441 37.3386 4.68453 37.4765 5.67731C37.234 10.6602 37.8047 15.9534 37.4837 20.8995C37.4052 22.1158 37.1567 23.1074 36.2281 23.9266L36.2876 6.39068C36.0926 4.66551 34.8264 3.60496 33.1428 3.4718C23.8 3.82016 14.1409 3.02356 4.83617 3.47061C4.29995 3.49676 3.76968 3.67273 3.23584 3.65371C3.5093 3.05566 4.22505 2.718 4.80526 2.48853C14.9031 2.37439 25.0769 2.31019 35.1664 2.52063C35.5469 2.67044 35.9083 2.80717 36.2412 3.05091L36.24 3.04972Z" fill="#1487FC"/>
<path d="M39.0894 21.0244C39.0002 21.1326 38.6923 21.4619 38.546 21.3692L38.7886 19.9472C38.4795 14.931 39.1881 9.44873 38.7826 4.48842C38.6257 2.56588 37.5188 1.18193 35.5201 1.09276C26.1179 1.4756 16.334 0.600534 6.97572 1.09276C6.55483 1.11535 6.23976 1.23781 5.86167 1.28775C5.74872 1.30321 5.50261 1.41853 5.61437 1.15815C5.73446 0.87756 6.84494 0.162999 7.15526 0.0833386C17.3327 0.0524257 27.5839 -0.136618 37.7411 0.179644C39.0335 0.63858 39.7421 1.69437 39.8598 3.05454C40.3045 8.21341 39.5174 14.0036 39.8563 19.2291C39.7338 19.9103 39.5293 20.4882 39.0894 21.0232V21.0244Z" fill="#1487FC"/>
<path d="M17.0023 9.57475C19.8903 9.29891 22.7545 11.1917 23.5998 13.9656C25.5747 20.4513 17.3923 25.0989 12.8624 20.0661C9.41085 16.2305 11.8803 10.0634 17.0023 9.57594V9.57475ZM14.6684 19.6286L16.6742 20.2967L16.9013 21.4964C18.976 21.9791 18.026 20.6213 18.3875 20.1148C18.4267 20.0601 19.1852 19.8485 19.4647 19.6464C20.9663 18.5585 20.8284 16.4124 19.3267 15.3864C18.7334 14.9809 16.9892 14.5731 16.8109 13.9739C16.5279 13.0227 17.7692 13.0453 18.3815 13.1214C18.8167 13.1761 19.5455 13.6398 19.8249 13.3497L20.1852 12.0395C20.0009 11.6721 18.8488 11.4711 18.4493 11.3903C18.133 11.1715 18.6395 10.4035 17.9844 10.1894C17.6051 10.0646 17.2912 10.1894 16.9215 10.2679L16.8002 11.4854C14.6862 12.0799 13.81 14.5826 15.7991 15.9428C16.5339 16.4445 18.7798 16.8547 18.4029 17.9902C18.0629 19.0139 15.8597 18.4444 15.1999 17.9937C14.9169 18.0389 14.5424 19.4276 14.6684 19.6297V19.6286Z" fill="#1487FC"/>
<path d="M7.48245 14.7966C9.16007 14.4221 9.53102 16.8702 7.90453 17.0057C6.59787 17.1139 6.3256 15.0558 7.48245 14.7966Z" fill="#1487FC"/>
<path d="M26.5807 15.0511C27.3261 14.308 28.6328 15.0725 28.4212 16.1105C28.1858 17.2649 25.9981 17.3517 26.3084 15.5505C26.3357 15.3912 26.4665 15.1653 26.5807 15.0511Z" fill="#1487FC"/>
<path d="M14.6687 19.6287C14.5427 19.4254 14.9172 18.0379 15.2002 17.9927C15.86 18.4433 18.0632 19.0128 18.4032 17.9891C18.7801 16.8537 16.533 16.4435 15.7994 15.9417C13.8103 14.5804 14.6865 12.0776 16.8005 11.4844L16.9218 10.2669C17.2915 10.1872 17.6042 10.0647 17.9847 10.1884C18.6398 10.4024 18.1333 11.1705 18.4496 11.3892C18.8491 11.4701 20.0023 11.671 20.1854 12.0384L19.8252 13.3486C19.5458 13.6399 18.8158 13.1751 18.3818 13.1204C17.7683 13.0443 16.5282 13.0217 16.8112 13.9728C16.9895 14.5733 18.7337 14.9799 19.327 15.3853C20.8287 16.4114 20.9666 18.5574 19.4649 19.6453C19.1855 19.8475 18.427 20.0591 18.3877 20.1138C18.0263 20.6203 18.9763 21.9793 16.9015 21.4954L16.6745 20.2957L14.6687 19.6275V19.6287Z" fill="white"/>
</g>
<defs>
<clipPath id="clip0_281_5779">
<rect width="40" height="26.9037" fill="white"/>
</clipPath>
</defs>
</svg>
