<svg width="41" height="40" viewBox="0 0 41 40" fill="none" xmlns="http://www.w3.org/2000/svg">
<path d="M12.5168 25L4.93342 11.9C4.60643 11.3348 4.45264 10.686 4.49116 10.0342C4.52968 9.38232 4.7588 8.75614 5.15009 8.23337L7.83342 4.66671C8.14391 4.25272 8.54653 3.91671 9.00938 3.68528C9.47223 3.45386 9.98261 3.33337 10.5001 3.33337H30.5001C31.0176 3.33337 31.528 3.45386 31.9908 3.68528C32.4537 3.91671 32.8563 4.25272 33.1668 4.66671L35.8334 8.23337C36.2273 8.75446 36.4594 9.37978 36.5009 10.0317C36.5424 10.6835 36.3914 11.3332 36.0668 11.9L28.4834 25" stroke="#1487FC" stroke-width="3.33333" stroke-linecap="round" stroke-linejoin="round"/>
<path d="M18.8337 20L9.03369 3.66663" stroke="#1487FC" stroke-width="3.33333" stroke-linecap="round" stroke-linejoin="round"/>
<path d="M22.1665 20L31.9665 3.66663" stroke="#1487FC" stroke-width="3.33333" stroke-linecap="round" stroke-linejoin="round"/>
<path d="M13.8335 11.6666H27.1668" stroke="#1487FC" stroke-width="3.33333" stroke-linecap="round" stroke-linejoin="round"/>
<path d="M20.4998 36.6667C25.1022 36.6667 28.8332 32.9357 28.8332 28.3333C28.8332 23.731 25.1022 20 20.4998 20C15.8975 20 12.1665 23.731 12.1665 28.3333C12.1665 32.9357 15.8975 36.6667 20.4998 36.6667Z" stroke="#1487FC" stroke-width="3.33333" stroke-linecap="round" stroke-linejoin="round"/>
<path d="M20.4998 30V26.6666H19.6665" stroke="#1487FC" stroke-width="3.33333" stroke-linecap="round" stroke-linejoin="round"/>
</svg>
