<svg width="48" height="61" viewBox="0 0 48 61" fill="none" xmlns="http://www.w3.org/2000/svg">
<g clip-path="url(#clip0_281_5983)">
<path d="M37.3621 0V35.3912C37.8437 35.7682 38.5858 35.7339 39.2096 35.943C46.7592 38.4744 50.3274 46.8928 46.3633 53.9899C42.1283 61.5737 31.559 62.4907 25.9632 55.8735C24.6247 54.2916 23.922 52.4834 23.2228 50.5588H0V0H37.3621ZM33.763 3.5991H3.5991V46.9597H23.1371C23.3976 41.3828 27.9153 36.3423 33.4751 35.6174L33.763 35.3912V3.5991ZM34.5839 38.9543C29.0619 39.5147 25.3976 45.0847 26.9555 50.4234C29.0053 57.4434 38.5121 59.0595 42.7436 53.1142C47.2356 46.802 42.2432 38.1779 34.5822 38.9543H34.5839Z" fill="white"/>
<path d="M27.7641 18.8525H9.42578V22.4516H27.7641V18.8525Z" fill="white"/>
<path d="M27.7641 27.2505H9.42578V30.8496H27.7641V27.2505Z" fill="white"/>
<path d="M27.7641 10.4546V14.0537H9.68286L9.42578 13.7966V10.4546H27.7641Z" fill="white"/>
<path d="M37.3618 41.1328V46.6172H39.5898V50.0449H33.7627V41.1328H37.3618Z" fill="white"/>
</g>
<defs>
<clipPath id="clip0_281_5983">
<rect width="48" height="60.3089" fill="white"/>
</clipPath>
</defs>
</svg>
