<svg width="48" height="49" viewBox="0 0 48 49" fill="none" xmlns="http://www.w3.org/2000/svg">
<path d="M38 34.3088H42C43.2 34.3088 44 33.5088 44 32.3088V26.3088C44 24.5088 42.6 22.9088 41 22.5088C37.4 21.5088 32 20.3088 32 20.3088C32 20.3088 29.4 17.5088 27.6 15.7088C26.6 14.9088 25.4 14.3088 24 14.3088H10C8.8 14.3088 7.8 15.1088 7.2 16.1088L4.4 21.9088C4.13516 22.6813 4 23.4922 4 24.3088V32.3088C4 33.5088 4.8 34.3088 6 34.3088H10" stroke="white" stroke-width="2" stroke-linecap="round" stroke-linejoin="round"/>
<path d="M14 38.3088C16.2091 38.3088 18 36.518 18 34.3088C18 32.0997 16.2091 30.3088 14 30.3088C11.7909 30.3088 10 32.0997 10 34.3088C10 36.518 11.7909 38.3088 14 38.3088Z" stroke="white" stroke-width="2" stroke-linecap="round" stroke-linejoin="round"/>
<path d="M18 34.3088H30" stroke="white" stroke-width="2" stroke-linecap="round" stroke-linejoin="round"/>
<path d="M34 38.3088C36.2091 38.3088 38 36.518 38 34.3088C38 32.0997 36.2091 30.3088 34 30.3088C31.7909 30.3088 30 32.0997 30 34.3088C30 36.518 31.7909 38.3088 34 38.3088Z" stroke="white" stroke-width="2" stroke-linecap="round" stroke-linejoin="round"/>
</svg>
