<svg width="48" height="49" viewBox="0 0 48 49" fill="none" xmlns="http://www.w3.org/2000/svg">
<g clip-path="url(#clip0_281_6068)">
<path d="M29.2041 33.5668L29.7404 32.5324C29.9106 32.2 30.0691 31.8734 30.2181 31.5403C30.5104 30.877 30.7493 30.2034 30.8998 29.5378C31.2059 28.1943 31.0466 26.962 30.2299 26.0494C29.4131 25.1186 28.0645 24.494 26.6706 24.0586C23.703 23.2045 20.6683 22.2541 17.7321 21.1393C16.9951 20.8595 16.2616 20.5688 15.531 20.259C14.8114 19.9566 14.0312 19.6031 13.3174 19.1245C12.6117 18.6475 11.8716 18.0118 11.4896 17.0373C11.3003 16.5581 11.2506 16.016 11.3143 15.5235C11.3785 15.0297 11.5393 14.5804 11.7388 14.18C12.1537 13.3596 12.6629 12.7678 13.1217 12.133L14.55 10.2701L17.4365 6.58361L22.3509 0.400895L18.6045 0.293457C18.6045 0.293457 10.0708 8.14118 6.26165 13.0936C2.95002 17.3981 4.75883 21.2014 10.7495 23.7597C15.8057 25.92 20.5383 27.5922 20.5383 27.5922C21.3536 28.0145 21.9336 28.7545 22.1265 29.6181C22.3193 30.4824 22.1061 31.3817 21.5413 32.0837L8.50518 48.2935H21.5114L27.0432 37.7121L29.2041 33.5668Z" fill="white"/>
<path d="M41.7163 24.7644C39.9009 21.7275 36.7931 19.5855 33.1929 18.8892L20.438 16.2001C19.9062 16.0978 19.4591 15.7603 19.2333 15.2913C19.0076 14.823 19.0317 14.2801 19.2969 13.8308L27.7758 0.555813L23.6459 0.4375L18.4246 7.34425L15.6354 11.0905L14.2641 12.9732C13.8228 13.6066 13.3362 14.2327 13.0681 14.8186C12.7826 15.4242 12.7109 16.0014 12.917 16.4806C13.1157 16.9715 13.6015 17.4281 14.1874 17.7949C14.7807 18.1704 15.4331 18.4531 16.1563 18.7366C16.8679 19.0178 17.5897 19.2845 18.3166 19.5402C21.2374 20.5666 24.1794 21.4111 27.2229 22.2082C28.7833 22.6728 30.4351 23.2952 31.7509 24.6834C32.3923 25.3781 32.8708 26.2906 33.0527 27.2352C33.2397 28.1806 33.1784 29.1113 33.0147 29.9718C32.8423 30.8317 32.5728 31.6397 32.2564 32.4097C32.0965 32.7925 31.924 33.1717 31.7472 33.537L31.2329 34.5912L29.172 38.7912L24.4955 48.2935H37.6792L42.6659 34.7329C43.878 31.4352 43.5317 27.8013 41.7163 24.7644Z" fill="white"/>
</g>
<defs>
<clipPath id="clip0_281_6068">
<rect width="48" height="48" fill="white" transform="translate(0 0.293457)"/>
</clipPath>
</defs>
</svg>
