<svg width="71" height="46" viewBox="0 0 71 46" fill="none" xmlns="http://www.w3.org/2000/svg">
<g clip-path="url(#clip0_279_4461)">
<path d="M19.8926 14.9377C21.2522 19.5142 24.4141 23.3019 28.4815 25.7232C29.5087 26.3331 32.0928 27.7271 33.1635 27.9266C34.9657 28.2636 39.3335 25.6246 40.8629 24.4988C42.9677 22.9488 44.4305 21.1375 45.9461 19.0396L51.7332 24.9367C55.9635 25.3861 60.8243 24.5447 64.9766 24.9963C71.2567 25.6796 71.2751 32.6384 70.8325 37.5038C70.5689 40.4134 66.9966 38.9139 64.8437 39.1133C63.1103 29.7494 50.8344 30.0062 49.1285 39.2257L21.4081 39.2142L20.9404 38.9941C19.4569 29.7884 6.81653 30.0406 5.45229 39.1913L0.887252 39.0996C0.314042 38.68 0.24755 38.1549 0.187936 37.5061C-0.0459332 34.9358 -0.0963756 28.9996 0.194815 26.4844C0.513519 23.7376 5.3858 25.5902 7.30261 24.8794L16.2607 15.4948C17.3384 14.7886 18.6567 14.846 19.888 14.9423L19.8926 14.9377Z" fill="#1487FC"/>
<path d="M45.6041 3.67074C45.5858 9.71007 46.4662 14.6328 42.385 19.6014C41.0941 21.172 35.3574 25.7278 33.4498 25.3518C31.7003 25.0079 27.399 22.0914 26.1012 20.7661C21.3367 15.8984 21.5477 10.0723 21.754 3.67303C26.1563 3.64322 30.2719 2.69857 33.796 0.00219727C37.194 2.75819 41.3005 3.59049 45.6018 3.67303L45.6041 3.67074Z" fill="#1487FC"/>
<path d="M12.7639 34.6769C19.4521 33.973 20.571 44.2816 14.0571 45.1506C6.94242 46.0975 5.71575 35.4198 12.7639 34.6769Z" fill="#1487FC"/>
<path d="M60.8861 36.307C65.6941 41.3696 57.6578 48.7961 53.0537 43.3392C48.4497 37.8822 56.3119 31.4875 60.8861 36.307Z" fill="#1487FC"/>
</g>
<defs>
<clipPath id="clip0_279_4461">
<rect width="71" height="45.256" fill="white"/>
</clipPath>
</defs>
</svg>
