<svg width="40" height="50" viewBox="0 0 40 50" fill="none" xmlns="http://www.w3.org/2000/svg">
<g clip-path="url(#clip0_279_4846)">
<path d="M19.6898 17.6326C32.1115 17.3814 40.0218 30.7881 34.0472 41.6488C28.4558 51.8127 14.1679 52.8161 7.16723 43.5547C-0.758688 33.0701 6.59248 17.898 19.6898 17.634V17.6326ZM18.9788 20.6171C8.64456 21.4132 3.24756 33.3823 9.4407 41.707C15.1982 49.4484 27.2098 48.5331 31.6617 39.9685C36.4555 30.7455 29.3343 19.8181 18.9788 20.6157V20.6171Z" fill="#1487FC"/>
<path d="M6.80196 10.9244V20.5745H3.96367V10.9244L2.04783 12.633L0 10.5894L5.31186 5.25061L10.7727 10.7115L8.7178 12.633L6.80196 10.9244Z" fill="#1487FC"/>
<path d="M36.0366 10.9244V20.5745H33.1983V10.9244L31.2825 12.633L29.2275 10.7115L34.6884 5.25061L40.0003 10.5894L37.9524 12.633L36.0366 10.9244Z" fill="#1487FC"/>
<path d="M21.4194 5.67349V14.756H18.5811V5.67349L16.6653 7.38214L14.6104 5.46062L20.0712 -0.000244141L25.3831 5.33858L23.3352 7.38214L21.4194 5.67349Z" fill="#1487FC"/>
<path d="M21.4195 23.5548V26.606C23.148 27.3595 24.3826 28.8326 24.3997 30.7924H21.4195C21.2747 28.4551 17.8006 29.274 18.689 31.4651C19.0878 32.45 20.348 32.2414 21.1385 32.4216C22.4611 32.7253 23.7156 33.95 24.1442 35.2344C24.973 37.7136 23.6617 39.8906 21.4195 40.9393V44.1324H18.5812V40.9393C16.8669 40.1063 15.6705 38.7382 15.601 36.7529H18.5812C18.6195 38.6091 21.4337 38.6048 21.4337 36.6819C21.4337 35.0101 19.8414 35.3309 18.6947 35.0087C17.5168 34.6766 16.3205 33.5427 15.9018 32.4089C14.9794 29.9012 16.2524 27.6292 18.5812 26.6074V23.5562H21.4195V23.5548Z" fill="#1487FC"/>
</g>
<defs>
<clipPath id="clip0_279_4846">
<rect width="40" height="49.9269" fill="white"/>
</clipPath>
</defs>
</svg>
