<svg width="44" height="44" viewBox="0 0 44 44" fill="none" xmlns="http://www.w3.org/2000/svg">
<path d="M39.0756 22.179C39.0756 25.5563 38.0741 28.8578 36.1978 31.6659C34.3215 34.474 31.6546 36.6627 28.5344 37.9551C25.4142 39.2475 21.9808 39.5857 18.6684 38.9268C15.356 38.2679 12.3134 36.6416 9.92525 34.2535C7.53714 31.8654 5.91082 28.8228 5.25194 25.5104C4.59307 22.198 4.93123 18.7646 6.22366 15.6444C7.51609 12.5242 9.70475 9.85728 12.5129 7.98096C15.321 6.10463 18.6224 5.10315 21.9997 5.10315C24.2422 5.10287 26.4628 5.54435 28.5347 6.4024C30.6066 7.26044 32.4891 8.51823 34.0748 10.1039C35.6605 11.6896 36.9183 13.5722 37.7764 15.644C38.6344 17.7159 39.0759 19.9365 39.0756 22.179ZM30.2217 12.4775C30.0275 12.365 29.8129 12.2919 29.5904 12.2625C29.3679 12.2331 29.1418 12.2478 28.925 12.3059C28.7082 12.364 28.505 12.4643 28.3271 12.6011C28.1491 12.7379 27.9999 12.9084 27.888 13.103L19.6315 27.403L15.8936 22.9167C15.75 22.7445 15.5739 22.6022 15.3753 22.4981C15.1768 22.3939 14.9596 22.3299 14.7363 22.3097C14.513 22.2895 14.2879 22.3134 14.0738 22.3802C13.8598 22.447 13.6609 22.5552 13.4887 22.6988C13.3165 22.8424 13.1743 23.0186 13.0701 23.2171C12.966 23.4157 12.902 23.6329 12.8817 23.8562C12.8409 24.3072 12.9809 24.7559 13.2709 25.1037L18.5746 31.4708C18.7348 31.6631 18.9353 31.8178 19.1619 31.924C19.3885 32.0302 19.6357 32.0854 19.886 32.0855C19.9349 32.0854 19.9839 32.0832 20.0327 32.079C20.3067 32.0557 20.571 31.9664 20.8031 31.8188C21.0352 31.6712 21.2282 31.4697 21.3656 31.2314L30.8429 14.809C30.955 14.6149 31.0278 14.4006 31.057 14.1783C31.0863 13.956 31.0714 13.7301 31.0133 13.5136C30.9553 13.2971 30.8551 13.0941 30.7185 12.9163C30.5819 12.7385 30.4116 12.5894 30.2174 12.4775H30.2217Z" fill="#1487FC"/>
</svg>
