<svg width="49" height="43" viewBox="0 0 49 43" fill="none" xmlns="http://www.w3.org/2000/svg">
<g clip-path="url(#clip0_279_4727)">
<path d="M3.39458 21.0758C3.40934 13.7184 7.3131 6.78021 13.5916 3.00928C22.664 -2.44271 34.5288 -0.31741 40.977 8.01407L38.8133 11.3334C38.5919 11.3865 38.5772 11.3024 38.4547 11.1784C38.0104 10.7297 37.4688 9.79253 36.9729 9.26563C34.728 6.88205 31.4087 4.98846 28.1971 4.31545C17.4363 2.06617 7.44446 10.1349 7.37952 21.0758H10.9217L5.38705 28.8951L0 21.0758H3.39458Z" fill="#1487FC"/>
<path d="M38.2256 21.0758L43.6126 13.2535L48.9997 21.0758H45.6051C45.5697 29.7261 40.1059 37.7284 32.0194 40.7718C23.4193 44.0099 13.5647 41.4034 7.99463 34.1125L10.1804 30.8862C10.3708 30.6943 10.4195 30.8552 10.545 30.9718C11.1073 31.4928 11.7346 32.5539 12.3397 33.162C23.1492 44.0394 41.6851 36.2201 41.6216 21.0744H38.227L38.2256 21.0758Z" fill="#1487FC"/>
<path d="M34.9793 31.5547H31.4372V29.7822L29.6646 29.7836V27.8635L27.7459 27.865V26.0924L25.9749 26.0939V24.3213C24.7971 24.0438 24.0458 24.7597 23.0319 24.9943C16.2531 26.5647 11.2483 18.7852 15.5004 13.3303C18.9938 8.84942 26.3468 10.0124 28.1577 15.426C28.7067 17.0658 28.506 18.6642 28.2581 20.3319L34.9779 27.0532V31.5547H34.9793ZM20.7605 14.6305C18.8315 12.7871 16.0774 16.1182 18.4551 17.6C20.4417 18.8369 22.2851 16.0872 20.7605 14.6305Z" fill="#1487FC"/>
</g>
<defs>
<clipPath id="clip0_279_4727">
<rect width="49" height="42.143" fill="white"/>
</clipPath>
</defs>
</svg>
